 <svg  version="1.0" xmlns="http://www.w3.org/2000/svg"  width="300.000000pt" height="304.000000pt" viewBox="0 0 300.000000 304.000000"  preserveAspectRatio="xMidYMid meet">  <g transform="translate(0.000000,304.000000) scale(0.100000,-0.100000)" fill="#ffffff" stroke="none"> <path d="M1808 2591 c-189 -68 -311 -161 -366 -279 -24 -50 -27 -69 -27 -157 0 -70 6 -116 19 -155 32 -94 112 -240 204 -372 150 -213 212 -354 212 -480 0 -98 -28 -174 -95 -262 -19 -25 -33 -46 -30 -46 2 0 53 21 112 46 191 81 311 174 371 289 24 45 26 61 26 150 0 80 -5 112 -23 160 -35 89 -92 183 -193 316 -113 149 -172 251 -205 357 -21 70 -25 96 -21 171 3 74 9 99 35 152 18 35 48 83 68 107 20 23 33 42 28 41 -4 0 -56 -17 -115 -38z m29 -25 c-10 -8 -19 -23 -20 -35 -1 -12 -4 -21 -8 -21 -3 0 -16 -30 -27 -67 -46 -150 -10 -324 105 -506 24 -37 43 -72 43 -78 0 -5 4 -8 8 -5 4 3 16 -11 27 -30 10 -19 22 -34 26 -34 4 0 18 -17 30 -37 13 -21 28 -44 34 -51 26 -32 31 -39 42 -57 7 -11 22 -40 34 -65 12 -25 25 -47 28 -50 8 -6 38 -100 47 -150 21 -114 -22 -228 -120 -315 -33 -31 -81 -65 -106 -77 -25 -12 -48 -26 -51 -31 -3 -5 -9 -8 -13 -8 -22 3 -36 0 -32 -8 3 -5 -12 -13 -35 -19 -34 -9 -38 -8 -28 4 6 8 9 14 5 14 -4 0 0 10 9 23 47 73 58 217 25 320 -20 59 -78 186 -91 197 -3 3 -19 29 -35 59 -15 29 -34 56 -41 58 -7 3 -13 11 -13 17 0 7 -15 30 -34 51 -19 21 -33 42 -31 46 3 3 -4 14 -14 23 -11 10 -25 31 -31 47 -7 16 -16 29 -19 29 -7 0 -17 21 -64 135 -57 136 -61 273 -12 370 29 57 124 155 150 155 8 0 15 5 15 10 0 9 34 27 95 50 11 5 40 17 65 29 52 24 63 26 37 7z"/> <path d="M1234 1948 c-129 -135 -183 -257 -191 -434 -9 -179 25 -308 115 -441 99 -145 231 -219 411 -230 l96 -5 33 60 c76 142 104 296 66 375 l-16 34 -44 -15 c-170 -56 -313 131 -229 298 l25 50 -34 47 c-58 82 -114 211 -131 306 -4 20 -11 37 -15 37 -4 0 -43 -37 -86 -82z m99 -44 c4 -4 7 -16 7 -26 0 -10 13 -45 29 -78 16 -33 27 -60 25 -60 -3 0 0 -6 6 -12 6 -7 23 -30 39 -52 l28 -39 -24 -48 c-28 -58 -31 -138 -7 -195 19 -47 82 -110 129 -130 39 -16 112 -18 148 -5 32 13 37 1 37 -89 0 -75 -15 -130 -62 -228 -34 -72 -48 -78 -141 -68 -84 10 -89 11 -112 23 -11 6 -39 16 -63 22 -23 7 -40 16 -37 21 4 6 0 10 -8 10 -8 0 -43 26 -78 59 -48 44 -75 79 -107 142 -23 46 -42 93 -42 105 0 11 -5 25 -12 32 -12 12 -18 310 -6 342 3 8 8 24 12 35 5 11 15 38 23 60 19 52 82 155 94 155 5 0 9 4 9 9 0 5 19 28 43 51 l42 42 10 -35 c6 -20 13 -39 18 -43z"/> <path d="M2260 1044 c0 -2 21 -15 48 -28 218 -111 25 -202 -495 -232 l-123 -7 0 -53 0 -52 78 4 c485 29 748 78 831 155 11 11 21 25 21 32 0 26 -34 58 -89 87 -54 27 -271 103 -271 94z m190 -92 c0 -5 6 -9 13 -10 25 -1 87 -29 106 -46 25 -22 18 -40 -24 -65 -81 -47 -301 -88 -600 -111 -77 -6 -147 -13 -157 -16 -29 -9 -68 7 -68 27 0 16 8 19 53 20 311 3 610 70 633 141 3 10 10 18 15 18 6 0 9 8 8 18 -1 9 -1 20 0 25 1 10 21 9 21 -1z"/> <path d="M890 997 c-227 -76 -276 -125 -185 -185 105 -67 524 -142 803 -142 l82 0 0 53 0 54 -147 6 c-211 10 -417 43 -486 78 -101 52 -85 112 41 153 28 10 52 19 52 22 0 10 -44 0 -160 -39z m-10 -113 c22 -31 110 -74 166 -81 27 -3 57 -10 67 -15 9 -5 21 -6 26 -3 5 3 11 1 13 -4 4 -11 183 -30 315 -33 90 -3 93 -4 93 -26 l0 -24 -132 6 c-134 5 -174 9 -283 26 -33 5 -94 14 -136 20 -128 16 -319 89 -319 121 0 5 7 9 16 9 8 0 12 4 9 10 -3 5 4 14 17 19 13 5 46 18 73 28 l50 20 5 -26 c3 -14 12 -36 20 -47z"/> <path d="M630 418 l0 -168 74 0 c58 0 75 3 80 16 10 26 7 302 -4 309 -5 3 -41 7 -80 8 l-70 3 0 -168z m44 127 c-4 -8 -8 -15 -10 -15 -2 0 -4 7 -4 15 0 8 4 15 10 15 5 0 7 -7 4 -15z m66 -130 l0 -115 -30 0 -30 0 0 115 0 115 30 0 30 0 0 -115z"/> <path d="M830 415 l0 -170 75 3 75 4 0 28 c0 29 0 29 -50 23 l-50 -6 0 47 0 46 40 0 c38 0 40 2 40 30 0 28 -2 30 -40 30 -39 0 -40 1 -40 36 l0 36 50 -4 50 -3 0 35 0 35 -75 0 -75 0 0 -170z m50 130 c-7 -9 -15 -13 -19 -10 -3 3 1 10 9 15 21 14 24 12 10 -5z m-8 -137 c-9 -9 -12 -7 -12 12 0 19 3 21 12 12 9 -9 9 -15 0 -24z"/> <path d="M1083 583 l-73 -4 0 -164 0 -165 75 0 75 0 0 29 c0 28 -1 28 -50 23 l-50 -5 0 47 0 46 40 0 c38 0 40 2 40 30 0 28 -2 30 -40 30 -39 0 -40 1 -40 36 l0 36 50 -4 50 -3 0 38 c0 20 -1 36 -2 35 -2 -1 -36 -4 -75 -5z m7 -35 c0 -6 -3 -8 -7 -5 -3 4 -15 0 -25 -10 -15 -14 -18 -14 -18 -1 0 8 3 18 7 21 11 11 43 8 43 -5z m-38 -140 c-9 -9 -12 -7 -12 12 0 19 3 21 12 12 9 -9 9 -15 0 -24z m3 -118 c3 -5 1 -10 -4 -10 -6 0 -11 5 -11 10 0 6 2 10 4 10 3 0 8 -4 11 -10z"/> <path d="M1198 417 l-3 -167 28 0 c28 0 28 2 26 46 -3 43 -1 47 44 86 l48 40 -3 77 -3 76 -67 5 -67 5 -3 -168z m100 90 c6 -32 -7 -64 -33 -81 l-25 -16 0 60 c0 61 0 61 27 58 17 -2 29 -10 31 -21z m-51 -122 c0 -8 -4 -15 -9 -15 -4 0 -8 7 -8 15 0 8 4 15 8 15 5 0 9 -7 9 -15z"/> <path d="M1710 418 l0 -168 25 0 c23 0 25 3 25 48 0 45 3 50 40 78 47 34 52 48 48 134 l-3 65 -68 5 -67 5 0 -167z m98 73 c3 -24 -3 -40 -19 -57 -12 -13 -25 -24 -28 -24 -5 0 -5 89 -1 118 0 2 10 2 23 0 17 -2 23 -11 25 -37z m-61 -113 c-3 -8 -6 -5 -6 6 -1 11 2 17 5 13 3 -3 4 -12 1 -19z"/> <path d="M1916 575 c-19 -10 -21 -21 -24 -148 -1 -83 2 -145 8 -157 9 -17 21 -20 74 -20 49 0 65 4 70 16 11 28 7 302 -5 309 -17 11 -101 11 -123 0z m29 -25 c-3 -5 -12 -10 -18 -10 -7 0 -6 4 3 10 19 12 23 12 15 0z m55 -136 l0 -115 -27 3 -28 3 -3 107 -3 107 28 4 c15 2 29 5 31 6 1 0 2 -51 2 -115z"/> <path d="M2090 418 l0 -168 25 0 c23 0 25 3 25 48 0 36 5 50 20 59 18 12 20 9 30 -30 6 -23 13 -50 16 -59 3 -11 15 -18 30 -18 19 0 24 4 20 18 -34 116 -37 132 -27 151 12 22 15 130 3 147 -4 6 -37 13 -74 16 l-68 4 0 -168z m100 74 c0 -28 -7 -45 -25 -62 l-25 -23 0 61 c0 59 1 62 25 62 22 0 25 -4 25 -38z m3 -99 c-3 -7 -6 -13 -8 -13 -2 0 -5 6 -8 13 -3 8 1 14 8 14 7 0 11 -6 8 -14z m-39 -1 c2 -4 -4 -13 -15 -20 -15 -10 -19 -10 -19 1 0 24 23 36 34 19z"/> <path d="M2368 582 c-97 -3 -98 -3 -98 -27 0 -22 4 -25 40 -25 l40 0 0 -140 0 -140 25 0 25 0 0 141 0 141 37 -4 c35 -3 38 -1 40 24 1 15 -1 29 -5 30 -4 2 -51 2 -104 0z m25 -38 c-2 -7 -11 -10 -19 -7 -17 6 -11 20 10 20 8 0 12 -6 9 -13z"/> <path d="M1516 565 c-11 -29 -7 -140 6 -153 7 -7 31 -12 55 -12 27 0 43 -5 44 -12 3 -38 1 -79 -4 -85 -13 -13 -57 8 -57 27 0 15 -7 20 -25 20 -22 0 -25 -4 -25 -39 0 -52 16 -63 92 -59 l63 3 0 95 0 95 -50 5 c-50 5 -50 5 -50 40 0 31 3 35 28 38 23 3 27 0 27 -22 0 -21 5 -26 26 -26 24 0 25 2 22 48 l-3 47 -71 3 c-59 2 -73 0 -78 -13z m49 -285 c3 -6 -1 -7 -9 -4 -18 7 -21 14 -7 14 6 0 13 -4 16 -10z"/> <path d="M2517 573 c-9 -9 -8 -145 1 -160 4 -6 28 -13 52 -15 l45 -3 0 -45 c0 -41 -2 -45 -25 -45 -18 0 -26 6 -28 23 -3 16 -10 22 -28 22 -24 0 -25 -3 -22 -47 l3 -48 69 -3 c49 -2 72 1 77 10 12 19 11 146 -1 169 -8 14 -21 19 -55 19 l-45 0 0 41 c0 38 1 40 28 37 19 -2 28 -9 30 -25 3 -17 10 -23 28 -23 21 0 24 5 24 34 0 62 -5 66 -79 66 -37 0 -71 -3 -74 -7z"/> </g> </svg> 