<?xml version="1.0" standalone="no"?>
<!DOCTYPE svg PUBLIC "-//W3C//DTD SVG 20010904//EN"
 "http://www.w3.org/TR/2001/REC-SVG-20010904/DTD/svg10.dtd">
<svg version="1.0" xmlns="http://www.w3.org/2000/svg"
 width="300.000000pt" height="304.000000pt" viewBox="0 0 300.000000 304.000000"
 preserveAspectRatio="xMidYMid meet">
<metadata>
Created by potrace 1.10, written by Peter Selinger 2001-2011
</metadata>
<g transform="translate(0.000000,304.000000) scale(0.100000,-0.100000)"
fill="#000000" stroke="none">
<path d="M1900 2623 c-290 -105 -388 -170 -451 -299 -86 -174 -27 -389 192
-699 159 -227 214 -358 207 -498 -4 -92 -29 -159 -91 -239 -20 -27 -34 -48
-31 -48 17 0 207 88 268 124 95 56 180 140 214 213 24 51 27 70 26 153 -1 147
-45 243 -221 477 -172 229 -229 364 -221 521 5 103 31 171 95 249 42 52 44 57
13 46z m-100 -90 c0 -5 -12 -39 -25 -78 -66 -187 -9 -386 186 -643 112 -148
117 -156 168 -253 78 -150 90 -260 39 -370 -27 -58 -115 -151 -160 -170 -16
-6 -28 -15 -28 -19 0 -10 -131 -63 -138 -56 -2 3 2 16 10 28 22 35 38 110 38
181 0 131 -76 302 -225 507 -90 123 -145 225 -186 340 -31 86 -33 235 -5 293
26 52 97 130 151 164 25 15 45 31 45 36 0 4 6 7 14 7 8 0 33 9 57 20 48 21 59
24 59 13z"/>
<path d="M1233 1946 c-132 -139 -193 -287 -193 -468 0 -375 234 -638 570 -638
l55 0 33 60 c76 137 104 298 66 371 -14 28 -18 30 -47 22 -18 -4 -56 -8 -85
-7 -144 2 -230 170 -157 306 l25 48 -34 47 c-58 82 -114 211 -131 306 -4 20
-11 37 -15 37 -4 0 -43 -38 -87 -84z m74 -8 c2 -36 68 -182 120 -267 16 -25
19 -40 12 -57 -4 -13 -5 -24 -1 -24 4 0 1 -4 -7 -9 -19 -12 -26 -129 -11 -177
8 -23 35 -60 67 -91 62 -60 111 -78 190 -69 50 6 53 5 59 -19 12 -49 -2 -141
-36 -227 -44 -115 -64 -127 -177 -110 -209 32 -370 192 -425 422 -27 112 -21
273 12 370 44 125 194 322 197 258z"/>
<path d="M2260 1043 c0 -5 20 -16 44 -26 23 -10 56 -31 71 -47 25 -26 27 -33
17 -54 -30 -66 -238 -113 -574 -132 l-128 -7 0 -54 0 -54 48 5 c26 3 97 8 157
11 276 15 543 60 648 110 138 65 94 123 -165 216 -120 43 -118 42 -118 32z
m253 -130 c15 -7 27 -10 28 -6 1 11 17 -29 18 -44 1 -17 -43 -38 -130 -64 -88
-25 -80 -23 -239 -43 -247 -29 -440 -42 -440 -29 0 6 53 13 119 16 203 11 408
49 489 91 33 17 67 56 77 87 7 21 24 20 78 -8z"/>
<path d="M897 1000 c-246 -82 -291 -134 -169 -197 64 -34 172 -64 307 -87 133
-23 372 -46 470 -46 l85 0 0 53 0 54 -152 6 c-306 13 -528 68 -544 134 -10 37
2 53 58 77 29 13 64 28 78 34 61 26 -21 9 -133 -28z m-47 -84 c0 -25 86 -94
132 -106 23 -6 57 -16 74 -21 73 -23 184 -38 319 -45 139 -6 168 -11 160 -25
-19 -30 -503 28 -696 82 -93 27 -124 47 -115 77 11 33 126 68 126 38z"/>
<path d="M630 418 l0 -168 68 0 c40 0 73 5 80 12 16 16 17 304 1 313 -6 4 -42
8 -80 9 l-69 2 0 -168z m110 -3 l0 -115 -30 0 -30 0 0 115 0 115 30 0 30 0 0
-115z"/>
<path d="M830 415 l0 -170 75 3 75 4 0 28 c0 29 0 29 -50 23 l-50 -6 0 47 0
46 40 0 c38 0 40 2 40 30 0 28 -2 30 -40 30 -39 0 -40 1 -40 35 l0 35 50 0
c50 0 50 0 50 33 l0 32 -75 0 -75 0 0 -170z"/>
<path d="M1083 583 l-73 -4 0 -164 0 -165 75 0 75 0 0 30 0 29 -50 -6 -50 -6
0 47 0 46 40 0 c38 0 40 2 40 30 0 28 -2 30 -40 30 -39 0 -40 1 -40 35 l0 35
50 0 50 0 0 35 c0 19 -1 34 -2 33 -2 -1 -36 -4 -75 -5z"/>
<path d="M1200 418 l0 -168 26 0 c26 0 26 2 22 45 -5 43 -4 45 44 85 l49 42
-3 76 -3 77 -68 5 -67 5 0 -167z m98 76 c3 -30 -28 -84 -49 -84 -5 0 -9 27 -9
61 0 60 0 60 28 57 22 -2 28 -9 30 -34z"/>
<path d="M1710 418 l0 -168 25 0 c23 0 25 3 25 49 0 39 4 52 23 64 61 41 67
54 67 133 0 84 3 81 -82 87 l-58 4 0 -169z m98 73 c3 -24 -3 -40 -19 -57 -12
-13 -26 -24 -29 -24 -4 0 -7 27 -6 60 1 59 2 61 26 58 20 -2 26 -9 28 -37z"/>
<path d="M1909 572 c-17 -12 -19 -26 -19 -148 0 -75 5 -144 10 -155 9 -16 22
-19 74 -19 49 0 65 4 70 16 10 27 7 302 -4 309 -21 13 -111 11 -131 -3z m91
-158 l0 -115 -27 3 -28 3 -3 99 c-1 55 0 106 2 113 3 7 17 13 31 13 l25 0 0
-116z"/>
<path d="M2094 581 c-2 -2 -4 -78 -4 -168 l0 -163 28 0 c26 0 27 2 24 47 -3
40 0 50 17 60 19 12 21 9 31 -30 6 -23 13 -50 16 -59 3 -11 15 -18 30 -18 19
0 24 4 20 18 -34 116 -37 132 -27 151 12 22 15 130 3 147 -7 11 -129 24 -138
15z m96 -89 c0 -28 -7 -45 -25 -62 l-25 -23 0 61 c0 59 1 62 25 62 22 0 25 -4
25 -38z"/>
<path d="M2368 582 c-97 -3 -98 -3 -98 -27 0 -22 4 -25 40 -25 l40 0 0 -140 0
-140 25 0 25 0 0 141 0 141 37 -4 c35 -3 38 -1 40 24 1 15 -1 29 -5 30 -4 2
-51 2 -104 0z"/>
<path d="M1516 565 c-10 -26 -7 -125 4 -146 8 -14 21 -19 55 -19 25 0 45 -3
46 -7 6 -39 5 -73 -1 -83 -12 -20 -55 -8 -58 18 -3 16 -10 22 -28 22 -21 0
-24 -4 -24 -39 0 -52 16 -63 92 -59 l63 3 0 95 0 95 -50 5 c-50 5 -50 5 -53
43 -3 35 -2 37 27 37 26 0 31 -4 31 -25 0 -20 5 -25 26 -25 24 0 25 2 22 48
l-3 47 -71 3 c-59 2 -73 0 -78 -13z"/>
<path d="M2514 567 c-3 -8 -4 -47 -2 -88 l3 -74 50 -5 50 -5 0 -45 c0 -41 -2
-45 -25 -45 -18 0 -26 6 -28 23 -3 16 -10 22 -28 22 -24 0 -25 -3 -22 -47 l3
-48 69 -3 c49 -2 72 1 77 10 12 19 11 146 -1 169 -8 14 -21 19 -55 19 l-45 0
0 41 c0 38 1 40 28 37 19 -2 28 -9 30 -25 3 -17 10 -23 28 -23 21 0 24 5 24
34 0 62 -5 66 -81 66 -49 0 -71 -4 -75 -13z"/>
</g>
</svg>
