<?xml version="1.0" standalone="no"?>
<!DOCTYPE svg PUBLIC "-//W3C//DTD SVG 20010904//EN"
 "http://www.w3.org/TR/2001/REC-SVG-20010904/DTD/svg10.dtd">
<svg version="1.0" xmlns="http://www.w3.org/2000/svg"
 width="300.000000pt" height="304.000000pt" viewBox="0 0 300.000000 304.000000"
 preserveAspectRatio="xMidYMid meet">
<metadata>
Created by potrace 1.10, written by Peter Selinger 2001-2011
</metadata>
<g transform="translate(0.000000,304.000000) scale(0.100000,-0.100000)"
fill="#000000" stroke="none">
<path d="M0 1520 l0 -1520 1500 0 1500 0 0 1520 0 1520 -1500 0 -1500 0 0
-1520z m1895 1068 c-20 -24 -50 -72 -68 -107 -26 -53 -32 -78 -35 -152 -8
-159 52 -298 226 -528 101 -133 158 -227 193 -316 18 -48 23 -80 23 -160 0
-89 -2 -105 -26 -150 -60 -115 -180 -208 -371 -289 -59 -25 -110 -46 -112 -46
-3 0 11 21 30 46 67 88 95 164 95 262 0 126 -62 267 -212 480 -92 132 -172
278 -204 372 -13 39 -19 85 -19 155 0 88 3 107 27 157 55 118 177 211 366 279
59 21 111 38 115 38 5 1 -8 -18 -28 -41z m-560 -595 c17 -95 73 -224 131 -306
l34 -47 -25 -50 c-84 -167 59 -354 229 -298 l44 15 16 -34 c38 -79 10 -233
-66 -375 l-33 -60 -96 5 c-180 11 -312 85 -411 230 -90 133 -124 262 -115 441
8 177 62 299 191 434 43 45 82 82 86 82 4 0 11 -17 15 -37z m1196 -1043 c55
-29 89 -61 89 -87 0 -7 -10 -21 -21 -32 -83 -77 -346 -126 -831 -155 l-78 -4
0 52 0 53 123 7 c348 20 549 66 579 132 10 21 8 28 -13 50 -13 14 -45 37 -71
50 -27 13 -48 26 -48 28 0 9 217 -67 271 -94z m-1481 86 c0 -3 -24 -12 -52
-22 -126 -41 -142 -101 -41 -153 69 -35 275 -68 486 -78 l147 -6 0 -54 0 -53
-82 0 c-191 0 -554 50 -693 95 -163 54 -194 105 -97 162 70 42 332 127 332
109z m-270 -461 c11 -7 14 -283 4 -309 -5 -13 -22 -16 -80 -16 l-74 0 0 168 0
168 70 -3 c39 -1 75 -5 80 -8z m200 -25 l0 -35 -50 3 -50 4 0 -36 c0 -35 1
-36 40 -36 38 0 40 -2 40 -30 0 -28 -2 -30 -40 -30 l-40 0 0 -46 0 -47 50 6
c50 6 50 6 50 -23 l0 -28 -75 -4 -75 -3 0 170 0 170 75 0 75 0 0 -35z m180 3
l0 -38 -50 3 -50 4 0 -36 c0 -35 1 -36 40 -36 38 0 40 -2 40 -30 0 -28 -2 -30
-40 -30 l-40 0 0 -46 0 -47 50 5 c49 5 50 5 50 -23 l0 -29 -75 0 -75 0 0 165
0 164 73 4 c39 1 73 4 75 5 1 1 2 -15 2 -35z m178 -54 l3 -77 -48 -40 c-45
-39 -47 -43 -44 -86 2 -44 2 -46 -26 -46 l-28 0 3 167 3 168 67 -5 67 -5 3
-76z m510 11 c4 -86 -1 -100 -48 -134 -37 -28 -40 -33 -40 -78 0 -45 -2 -48
-25 -48 l-25 0 0 168 0 167 67 -5 68 -5 3 -65z m191 65 c12 -7 16 -281 5 -309
-5 -12 -21 -16 -70 -16 -53 0 -65 3 -74 20 -6 12 -9 74 -8 157 3 127 5 138 24
148 22 11 106 11 123 0z m193 -9 c12 -17 9 -125 -3 -147 -10 -19 -7 -35 27
-151 4 -14 -1 -18 -20 -18 -15 0 -27 7 -30 18 -3 9 -10 36 -16 59 -10 39 -12
42 -30 30 -15 -9 -20 -23 -20 -59 0 -45 -2 -48 -25 -48 l-25 0 0 168 0 168 68
-4 c37 -3 70 -10 74 -16z m245 -14 c-2 -25 -5 -27 -40 -24 l-37 4 0 -141 0
-141 -25 0 -25 0 0 140 0 140 -40 0 c-36 0 -40 3 -40 25 0 24 1 24 98 27 53 2
100 2 104 0 4 -1 6 -15 5 -30z m-809 -24 c3 -46 2 -48 -22 -48 -21 0 -26 5
-26 26 0 22 -4 25 -27 22 -25 -3 -28 -7 -28 -38 0 -35 0 -35 50 -40 l50 -5 0
-95 0 -95 -63 -3 c-76 -4 -92 7 -92 59 0 35 3 39 25 39 18 0 25 -5 25 -20 0
-19 44 -40 57 -27 5 6 7 47 4 85 -1 7 -17 12 -44 12 -24 0 -48 5 -55 12 -13
13 -17 124 -6 153 5 13 19 15 78 13 l71 -3 3 -47z m996 36 c3 -9 6 -31 6 -50
0 -29 -3 -34 -24 -34 -18 0 -25 6 -28 23 -2 16 -11 23 -30 25 -27 3 -28 1 -28
-37 l0 -41 45 0 c34 0 47 -5 55 -19 12 -23 13 -150 1 -169 -5 -9 -28 -12 -77
-10 l-69 3 -3 48 c-3 44 -2 47 22 47 18 0 25 -6 28 -22 2 -17 10 -23 28 -23
23 0 25 4 25 45 l0 45 -45 3 c-24 2 -48 9 -52 15 -9 15 -10 151 -1 160 3 4 37
7 74 7 52 0 68 -4 73 -16z"/>
<path d="M1800 2559 c-25 -12 -54 -24 -65 -29 -61 -23 -95 -41 -95 -50 0 -5
-7 -10 -15 -10 -26 0 -121 -98 -150 -155 -49 -97 -45 -234 12 -370 47 -114 57
-135 64 -135 3 0 12 -13 19 -29 6 -16 20 -37 31 -47 10 -9 17 -20 14 -23 -2
-4 12 -25 31 -46 19 -21 34 -44 34 -51 0 -6 6 -14 13 -17 7 -2 26 -29 41 -58
16 -30 32 -56 35 -59 13 -11 71 -138 91 -197 33 -103 22 -247 -25 -320 -9 -13
-13 -23 -9 -23 4 0 1 -6 -5 -14 -10 -12 -6 -13 28 -4 23 6 38 14 35 19 -4 8
10 11 32 8 4 0 10 3 13 8 3 5 26 19 51 31 25 12 73 46 106 77 98 87 141 201
120 315 -9 50 -39 144 -47 150 -3 3 -16 25 -28 50 -12 25 -27 54 -34 65 -11
18 -16 25 -42 57 -6 7 -21 30 -34 51 -12 20 -26 37 -30 37 -4 0 -16 15 -26 34
-11 19 -23 33 -27 30 -4 -3 -8 0 -8 5 0 6 -19 41 -43 78 -115 182 -151 356
-105 506 11 37 24 67 27 67 4 0 7 9 8 21 1 12 10 27 20 35 26 19 15 17 -37 -7z"/>
<path d="M1263 1940 c-24 -23 -43 -46 -43 -51 0 -5 -4 -9 -9 -9 -12 0 -75
-103 -94 -155 -8 -22 -18 -49 -23 -60 -4 -11 -9 -27 -12 -35 -12 -32 -6 -330
6 -342 7 -7 12 -21 12 -32 0 -12 19 -59 42 -105 32 -63 59 -98 107 -142 35
-33 70 -59 78 -59 8 0 12 -4 8 -10 -3 -5 14 -14 37 -21 24 -6 52 -16 63 -22
23 -12 28 -13 112 -23 93 -10 107 -4 141 68 47 98 62 153 62 228 0 90 -5 102
-37 89 -36 -13 -109 -11 -148 5 -47 20 -110 83 -129 130 -24 57 -21 137 7 195
l24 48 -28 39 c-16 22 -33 45 -39 52 -6 6 -9 12 -6 12 2 0 -9 27 -25 60 -16
33 -29 68 -29 78 0 10 -3 22 -7 26 -5 4 -12 23 -18 43 l-10 35 -42 -42z"/>
<path d="M2429 953 c-1 -5 -1 -16 0 -25 1 -10 -2 -18 -8 -18 -5 0 -12 -8 -15
-18 -23 -71 -322 -138 -633 -141 -45 -1 -53 -4 -53 -20 0 -20 39 -36 68 -27
10 3 80 10 157 16 299 23 519 64 600 111 42 25 49 43 24 65 -19 17 -81 45
-106 46 -7 1 -13 5 -13 10 0 10 -20 11 -21 1z"/>
<path d="M805 937 c-27 -10 -60 -23 -73 -28 -13 -5 -20 -14 -17 -19 3 -6 -1
-10 -9 -10 -9 0 -16 -4 -16 -9 0 -32 191 -105 319 -121 42 -6 103 -15 136 -20
109 -17 149 -21 283 -26 l132 -6 0 24 c0 22 -3 23 -93 26 -132 3 -311 22 -315
33 -2 5 -8 7 -13 4 -5 -3 -17 -2 -26 3 -10 5 -40 12 -67 15 -56 7 -144 50
-166 81 -8 11 -17 33 -20 47 l-5 26 -50 -20z"/>
<path d="M660 545 c0 -8 2 -15 4 -15 2 0 6 7 10 15 3 8 1 15 -4 15 -6 0 -10
-7 -10 -15z"/>
<path d="M680 415 l0 -115 30 0 30 0 0 115 0 115 -30 0 -30 0 0 -115z"/>
<path d="M870 550 c-8 -5 -12 -12 -9 -15 4 -3 12 1 19 10 14 17 11 19 -10 5z"/>
<path d="M860 420 c0 -19 3 -21 12 -12 9 9 9 15 0 24 -9 9 -12 7 -12 -12z"/>
<path d="M1047 553 c-4 -3 -7 -13 -7 -21 0 -13 3 -13 18 1 10 10 22 14 25 10
4 -3 7 -1 7 5 0 13 -32 16 -43 5z"/>
<path d="M1040 420 c0 -19 3 -21 12 -12 9 9 9 15 0 24 -9 9 -12 7 -12 -12z"/>
<path d="M1040 290 c0 -5 5 -10 11 -10 5 0 7 5 4 10 -3 6 -8 10 -11 10 -2 0
-4 -4 -4 -10z"/>
<path d="M1240 470 l0 -60 25 16 c46 30 48 97 2 102 -27 3 -27 3 -27 -58z"/>
<path d="M1230 385 c0 -8 4 -15 8 -15 5 0 9 7 9 15 0 8 -4 15 -9 15 -4 0 -8
-7 -8 -15z"/>
<path d="M1760 528 c-4 -29 -4 -118 1 -118 3 0 16 11 28 24 30 32 26 90 -6 94
-13 2 -23 2 -23 0z"/>
<path d="M1741 384 c0 -11 3 -14 6 -6 3 7 2 16 -1 19 -3 4 -6 -2 -5 -13z"/>
<path d="M1930 550 c-9 -6 -10 -10 -3 -10 6 0 15 5 18 10 8 12 4 12 -15 0z"/>
<path d="M1967 523 l-28 -4 3 -107 3 -107 28 -3 27 -3 0 115 c0 64 -1 115 -2
115 -2 -1 -16 -4 -31 -6z"/>
<path d="M2140 468 l0 -61 25 23 c18 17 25 34 25 62 0 34 -3 38 -25 38 -24 0
-25 -3 -25 -62z"/>
<path d="M2177 393 c3 -7 6 -13 8 -13 2 0 5 6 8 13 3 8 -1 14 -8 14 -7 0 -11
-6 -8 -14z"/>
<path d="M2127 393 c-4 -3 -7 -12 -7 -20 0 -11 4 -11 19 -1 11 7 17 16 15 20
-6 10 -18 10 -27 1z"/>
<path d="M2365 549 c-3 -4 1 -9 9 -12 8 -3 17 0 19 7 5 13 -21 18 -28 5z"/>
<path d="M1540 286 c0 -2 7 -7 16 -10 8 -3 12 -2 9 4 -6 10 -25 14 -25 6z"/>
</g>
</svg>
